<svg width="32" height="33" viewBox="0 0 32 33" fill="none" xmlns="http://www.w3.org/2000/svg">
<g id="bonuses">
<svg width="32" height="33" viewBox="0 0 32 33" fill="none" xmlns="http://www.w3.org/2000/svg">
<rect x="0.612372" y="7.63401" width="16.1406" height="25.6631" rx="3.5" transform="rotate(-15 0.612372 7.63401)" stroke="black"/>
<rect x="15.7873" y="0.611452" width="16.1406" height="25.6631" rx="3.5" transform="rotate(14.8512 15.7873 0.611452)" fill="white" stroke="black"/>
</svg>
</g>
<g id="orders">
<path d="M29.733 7.06066L15.2038 0.0465327C15.075 -0.0155923 14.925 -0.0155923 14.7962 0.0465327L0.266891 7.06066C0.104891 7.13885 0.00195312 7.30291 0.00195312 7.48278V24.5171C0.00195312 24.697 0.104891 24.861 0.266891 24.9392L14.7961 31.9533C14.8605 31.9844 14.9303 32 15 32C15.0696 32 15.1393 31.9844 15.2038 31.9533L29.733 24.9392C29.895 24.861 29.998 24.697 29.998 24.5171V7.48285C29.998 7.30285 29.895 7.13891 29.733 7.06066ZM15 0.98922L28.451 7.48278L24.5518 9.36516C24.5271 9.34635 24.5011 9.32897 24.4725 9.31516L11.1128 2.86578L15 0.98922ZM10.0541 3.39578L23.4856 9.87991L20.7347 11.208L7.30877 4.72647L10.0541 3.39578ZM23.7999 10.7692V15.6783L21.2303 16.9188V12.0097L23.7999 10.7692ZM29.0605 24.223L15.4687 30.7843V14.7911L21.1423 12.0522C21.3755 11.9397 21.4732 11.6595 21.3606 11.4263C21.2481 11.1932 20.9679 11.0953 20.7347 11.208L15 13.9764L11.6971 12.3819C11.4639 12.2692 11.1837 12.3671 11.0711 12.6002C10.9586 12.8333 11.0563 13.1136 11.2895 13.2262L14.5312 14.7911V30.7843L0.939453 24.2228V8.2296L11.2895 13.2262C11.3551 13.2579 11.4246 13.2729 11.4929 13.2729C11.6671 13.2729 11.8345 13.1753 11.9153 13.0078C12.0279 12.7747 11.9302 12.4945 11.6971 12.3819L1.54889 7.48278L6.20545 5.23478L20.2863 12.0325C20.2884 12.0353 20.2907 12.0379 20.2928 12.0407V17.6657C20.2928 17.827 20.3758 17.9769 20.5124 18.0627C20.5883 18.1103 20.6748 18.1344 20.7616 18.1344C20.8311 18.1344 20.9008 18.119 20.9654 18.0878L24.4725 16.3947C24.6345 16.3165 24.7374 16.1525 24.7374 15.9726V10.3167L29.0605 8.22966V24.223Z" fill="black"/>
</g>
<g id="actions">
<path d="M12.3854 31.377C12.1867 31.3778 11.9888 31.3536 11.7967 31.305C10.8932 31.0731 10.3039 30.3513 9.73483 29.6533C9.43007 29.2201 9.04856 28.8415 8.60762 28.5347C8.10207 28.3155 7.56028 28.1834 7.00704 28.1444C6.10182 28.0188 5.16661 27.8893 4.51738 27.2666C3.86816 26.6439 3.73324 25.745 3.60236 24.8759C3.56162 24.3449 3.42403 23.8248 3.19587 23.3394C2.87621 22.9162 2.48183 22.5499 2.03061 22.2573C1.30355 21.711 0.552267 21.1458 0.310681 20.2779C0.0800502 19.4449 0.425996 18.6118 0.760987 17.8065C1.0081 17.315 1.16269 16.7854 1.21764 16.2422C1.16269 15.6991 1.0081 15.1695 0.760987 14.678C0.42542 13.8727 0.0783205 13.0396 0.310681 12.2066C0.552267 11.3387 1.30412 10.7735 2.03061 10.2272C2.48178 9.93448 2.87614 9.56826 3.19587 9.14509C3.42332 8.65962 3.55994 8.1395 3.59947 7.60854C3.73036 6.73952 3.86528 5.84117 4.5145 5.21791C5.16373 4.59466 6.10124 4.46458 7.00531 4.33949C7.55859 4.30038 8.10038 4.16811 8.60589 3.94871C9.04683 3.64192 9.42834 3.2633 9.7331 2.83006C10.3022 2.13207 10.8914 1.41085 11.7944 1.17892C12.6638 0.957519 13.5304 1.28963 14.3699 1.61122C14.8821 1.8481 15.434 1.99596 15.9999 2.04794C16.5656 1.9953 17.117 1.84688 17.6287 1.60956C18.4677 1.28741 19.3348 0.955305 20.2032 1.17726C21.1066 1.40919 21.6959 2.13097 22.265 2.82895C22.5698 3.2622 22.9513 3.64081 23.3922 3.9476C23.8977 4.16579 24.4393 4.29694 24.9922 4.33506C25.8974 4.46071 26.8332 4.59023 27.4824 5.21348C28.1317 5.83674 28.2666 6.73509 28.3975 7.60356C28.4382 8.13464 28.5758 8.65472 28.8039 9.14011C29.1236 9.56352 29.5179 9.92994 29.9692 10.2228C30.6963 10.7691 31.4475 11.3342 31.6891 12.2016C31.9198 13.0346 31.5738 13.8677 31.2388 14.6736C30.9917 15.1651 30.8371 15.6946 30.7822 16.2378C30.837 16.7811 30.9918 17.3107 31.2394 17.802C31.5744 18.6074 31.9215 19.4404 31.6891 20.2735C31.4475 21.1414 30.6957 21.7065 29.9692 22.2528C29.518 22.5456 29.1237 22.9118 28.8039 23.335C28.5765 23.8204 28.4399 24.3406 28.4003 24.8715C28.2695 25.7405 28.1345 26.6389 27.4853 27.2621C26.8361 27.8854 25.9003 28.0149 24.9957 28.1406C24.4424 28.1794 23.9006 28.3115 23.3951 28.5308C22.9541 28.8376 22.5726 29.2162 22.2679 29.6494C21.6988 30.3474 21.1101 31.0692 20.2066 31.3011C19.3377 31.5225 18.4705 31.1904 17.631 30.8688C17.1184 30.6323 16.5661 30.4849 15.9999 30.4332C15.4342 30.4861 14.8828 30.6347 14.3711 30.8722C13.7477 31.1578 13.0743 31.329 12.3854 31.377ZM12.3848 2.21399C12.2864 2.2131 12.1883 2.22464 12.093 2.24831C11.562 2.38448 11.1128 2.93246 10.6412 3.51309C10.2512 4.06148 9.7571 4.53449 9.18477 4.90739C8.5541 5.20314 7.87107 5.38227 7.17137 5.43544C6.51461 5.44862 5.87599 5.64477 5.33324 6.00003C4.9629 6.52159 4.75838 7.13522 4.74456 7.76629C4.68973 8.43803 4.50331 9.09381 4.19508 9.69916C3.8057 10.2495 3.31156 10.7242 2.73865 11.0984C2.13382 11.5523 1.56358 11.9841 1.42117 12.4916C1.37678 13.1086 1.51808 13.7247 1.82823 14.2668C2.13607 14.8866 2.31917 15.5566 2.36791 16.2417C2.31917 16.9268 2.13607 17.5968 1.82823 18.2166C1.51811 18.7586 1.37682 19.3748 1.42117 19.9917C1.56358 20.5015 2.13439 20.9327 2.73865 21.3855C3.31008 21.7599 3.80283 22.2345 4.19104 22.7842C4.49942 23.3897 4.68604 24.0457 4.7411 24.7176C4.7547 25.3486 4.95924 25.9621 5.32978 26.4833C5.87263 26.8389 6.51147 27.0353 7.16848 27.0485C7.86837 27.1013 8.55161 27.2803 9.18247 27.576C9.755 27.9488 10.2493 28.4218 10.6395 28.9703C11.1128 29.5504 11.562 30.0989 12.0919 30.2351C12.7341 30.2768 13.3754 30.141 13.9398 29.8437C14.5864 29.5482 15.2854 29.3726 15.9999 29.3262C16.7133 29.373 17.4111 29.5488 18.0566 29.8443C18.621 30.1429 19.2633 30.2786 19.9062 30.2351C20.4372 30.0989 20.8864 29.5509 21.3575 28.9703C21.7478 28.4216 22.2423 27.9484 22.815 27.5754C23.4457 27.2797 24.1288 27.1008 24.8284 27.0479C25.4857 27.0348 26.1247 26.8385 26.6677 26.4828C27.038 25.9614 27.2425 25.348 27.2564 24.7171C27.3112 24.0453 27.4977 23.3896 27.8059 22.7842C28.1948 22.2339 28.6886 21.7592 29.2612 21.3849C29.8654 20.9305 30.4362 20.4993 30.5786 19.9912C30.6229 19.3744 30.4816 18.7585 30.1716 18.2166C29.8638 17.5968 29.6806 16.9268 29.6319 16.2417C29.6806 15.5566 29.8638 14.8866 30.1716 14.2668C30.4817 13.7245 30.623 13.1082 30.5786 12.4911C30.4362 11.9813 29.866 11.5501 29.2617 11.0979C28.69 10.7234 28.197 10.2487 27.8088 9.6986C27.5004 9.09309 27.3137 8.43714 27.2587 7.76518C27.2441 7.13407 27.0384 6.52071 26.6666 6.00003C26.1237 5.64394 25.4846 5.44737 24.8273 5.43434C24.1276 5.38134 23.4446 5.20239 22.8139 4.90684C22.2413 4.53388 21.747 4.06067 21.3569 3.51198C20.8835 2.9319 20.4344 2.38392 19.9051 2.24776C19.2624 2.20474 18.6204 2.34041 18.056 2.63854C17.4106 2.93339 16.713 3.1086 15.9999 3.15497C15.2865 3.10815 14.5887 2.93237 13.9433 2.63688C13.4531 2.4105 12.9258 2.26742 12.3848 2.21399Z" fill="black"/>
<path d="M15.9998 26.464C13.8938 26.464 11.835 25.8645 10.084 24.7413C8.33286 23.618 6.96805 22.0215 6.16211 20.1536C5.35618 18.2858 5.14531 16.2304 5.55617 14.2475C5.96703 12.2645 6.98118 10.4431 8.47036 9.01348C9.95954 7.58387 11.8569 6.61029 13.9224 6.21586C15.988 5.82143 18.129 6.02387 20.0747 6.79757C22.0204 7.57127 23.6834 8.88149 24.8534 10.5625C26.0235 12.2436 26.648 14.22 26.648 16.2417C26.6449 18.952 25.5221 21.5503 23.5258 23.4667C21.5296 25.3832 18.8229 26.4611 15.9998 26.464ZM15.9998 7.12647C14.1218 7.12647 12.2861 7.66107 10.7246 8.66267C9.16315 9.66427 7.94615 11.0879 7.22749 12.7535C6.50883 14.4191 6.3208 16.2518 6.68717 18.02C7.05353 19.7882 7.95785 21.4124 9.28576 22.6872C10.6137 23.962 12.3055 24.8301 14.1474 25.1818C15.9893 25.5336 17.8984 25.353 19.6334 24.6631C21.3684 23.9732 22.8513 22.8049 23.8946 21.3059C24.938 19.8069 25.4948 18.0446 25.4948 16.2417C25.4921 13.825 24.4908 11.5081 22.7108 9.79918C20.9307 8.09031 18.5172 7.12911 15.9998 7.12647Z" fill="black"/>
<path d="M11.8157 21.0335C11.7017 21.0335 11.5902 21.001 11.4954 20.9402C11.4007 20.8794 11.3268 20.793 11.2831 20.6918C11.2395 20.5907 11.2281 20.4794 11.2503 20.3721C11.2726 20.2647 11.3275 20.1661 11.4081 20.0887L19.9558 11.879C20.009 11.8261 20.0726 11.7839 20.143 11.7549C20.2133 11.7259 20.289 11.7107 20.3655 11.71C20.4421 11.7094 20.518 11.7234 20.5889 11.7512C20.6597 11.779 20.7241 11.8201 20.7782 11.8721C20.8324 11.9241 20.8752 11.9859 20.9042 12.0539C20.9332 12.1219 20.9478 12.1948 20.9471 12.2683C20.9464 12.3418 20.9305 12.4144 20.9003 12.482C20.8701 12.5495 20.8262 12.6106 20.7711 12.6616L12.2234 20.8725C12.1151 20.9759 11.9685 21.0338 11.8157 21.0335Z" fill="black"/>
<path d="M18.9403 21.2454C18.4956 21.2454 18.0608 21.1188 17.691 20.8816C17.3212 20.6444 17.033 20.3073 16.8628 19.9128C16.6926 19.5184 16.6481 19.0843 16.7349 18.6656C16.8216 18.2468 17.0358 17.8622 17.3503 17.5603C17.6647 17.2584 18.0654 17.0528 18.5016 16.9695C18.9378 16.8862 19.3899 16.929 19.8008 17.0924C20.2117 17.2557 20.5629 17.5324 20.81 17.8874C21.0571 18.2424 21.1889 18.6598 21.1889 19.0867C21.1889 19.6593 20.952 20.2083 20.5303 20.6132C20.1086 21.018 19.5367 21.2454 18.9403 21.2454ZM18.9403 18.04C18.7236 18.04 18.5118 18.1017 18.3317 18.2173C18.1515 18.3328 18.0111 18.4971 17.9282 18.6893C17.8453 18.8814 17.8236 19.0929 17.8659 19.2969C17.9081 19.5009 18.0125 19.6883 18.1657 19.8354C18.3189 19.9824 18.5141 20.0826 18.7266 20.1232C18.9391 20.1638 19.1594 20.1429 19.3595 20.0633C19.5597 19.9837 19.7308 19.8489 19.8512 19.676C19.9715 19.503 20.0358 19.2997 20.0358 19.0917C20.0358 18.8128 19.9204 18.5453 19.7149 18.3481C19.5095 18.1508 19.2308 18.04 18.9403 18.04Z" fill="black"/>
<path d="M13.0594 15.5499C12.6147 15.5499 12.1799 15.4233 11.8102 15.1861C11.4404 14.9489 11.1522 14.6118 10.982 14.2173C10.8118 13.8229 10.7672 13.3888 10.854 12.9701C10.9408 12.5513 11.1549 12.1667 11.4694 11.8648C11.7839 11.5629 12.1846 11.3573 12.6208 11.274C13.0569 11.1907 13.5091 11.2334 13.92 11.3968C14.3308 11.5602 14.682 11.8369 14.9291 12.1919C15.1762 12.5469 15.3081 12.9643 15.3081 13.3912C15.3081 13.9637 15.0712 14.5128 14.6495 14.9176C14.2278 15.3225 13.6558 15.5499 13.0594 15.5499ZM13.0594 12.3445C12.8428 12.3445 12.631 12.4062 12.4508 12.5218C12.2707 12.6373 12.1303 12.8016 12.0473 12.9937C11.9644 13.1859 11.9427 13.3974 11.985 13.6014C12.0273 13.8054 12.1316 13.9928 12.2848 14.1398C12.438 14.2869 12.6332 14.3871 12.8457 14.4277C13.0582 14.4682 13.2785 14.4474 13.4787 14.3678C13.6788 14.2882 13.8499 14.1534 13.9703 13.9805C14.0907 13.8075 14.1549 13.6042 14.1549 13.3962C14.1551 13.258 14.1269 13.1211 14.0719 12.9934C14.0169 12.8657 13.9362 12.7496 13.8345 12.6518C13.7327 12.5541 13.6119 12.4765 13.4789 12.4236C13.3459 12.3707 13.2034 12.3434 13.0594 12.3434V12.3445Z" fill="black"/>
</g>
<g id="cart">
<path d="M20.0151 15.8001C19.7544 15.7993 19.4961 15.8503 19.2552 15.9501C19.0143 16.0499 18.7955 16.1964 18.6116 16.3813L18.0001 16.993L17.3886 16.3815C17.2043 16.1972 16.9855 16.051 16.7446 15.9512C16.5038 15.8514 16.2457 15.8001 15.985 15.8001C15.7244 15.8001 15.4662 15.8514 15.2254 15.9511C14.9846 16.0509 14.7658 16.1971 14.5814 16.3814C14.3971 16.5657 14.2509 16.7845 14.1511 17.0254C14.0514 17.2662 14 17.5243 14 17.785C14 18.0456 14.0513 18.3037 14.1511 18.5446C14.2508 18.7854 14.397 19.0042 14.5813 19.1886L17.6464 22.2537C17.6928 22.3001 17.7479 22.3369 17.8086 22.3621C17.8693 22.3872 17.9343 22.4001 18 22.4001C18.0656 22.4001 18.1306 22.3872 18.1913 22.3621C18.252 22.3369 18.3071 22.3001 18.3535 22.2537L21.4188 19.1886C21.6964 18.9109 21.8855 18.5573 21.9621 18.1722C22.0387 17.7872 21.9993 17.388 21.8491 17.0253C21.6988 16.6626 21.4444 16.3526 21.118 16.1345C20.7915 15.9164 20.4077 15.8 20.0151 15.8001ZM20.7116 18.4813L18.0001 21.193L15.2885 18.4813C15.108 18.2958 15.0078 18.0466 15.0096 17.7877C15.0113 17.5288 15.115 17.2811 15.298 17.098C15.4811 16.9149 15.7289 16.8113 15.9877 16.8096C16.2466 16.8078 16.4958 16.908 16.6813 17.0886L17.6464 18.0536C17.6928 18.1001 17.7479 18.1369 17.8086 18.162C17.8693 18.1871 17.9343 18.2001 18 18.2001C18.0656 18.2001 18.1306 18.1871 18.1913 18.162C18.252 18.1369 18.3071 18.1001 18.3535 18.0536L19.3188 17.0885C19.5043 16.9074 19.7536 16.8068 20.0128 16.8083C20.272 16.8099 20.5201 16.9135 20.7034 17.0968C20.8866 17.28 20.9903 17.5282 20.9918 17.7873C20.9934 18.0465 20.8927 18.2959 20.7116 18.4813Z" fill="black"/>
<path d="M27.7549 8.06983L14.2549 0.0698288C14.1775 0.0239706 14.0892 -0.000153266 13.9992 7.32708e-07C13.9093 0.000154731 13.821 0.0245809 13.7437 0.0707038L0.24375 8.12827C0.169444 8.17262 0.10792 8.23549 0.0651946 8.31074C0.0224693 8.38599 5.38469e-06 8.47105 0 8.55758V29.5576C0 29.6902 0.0526785 29.8174 0.146447 29.9111C0.240215 30.0049 0.367392 30.0576 0.5 30.0576H0.501062L27.5011 30C27.6335 29.9997 27.7604 29.9469 27.8539 29.8532C27.9475 29.7595 28 29.6324 28 29.5V8.50002C28 8.41321 27.9774 8.32791 27.9344 8.25249C27.8914 8.17706 27.8296 8.11412 27.7549 8.06983ZM10 16.0418V17.5C10 17.5929 10.0259 17.6839 10.0747 17.7629C10.1235 17.8419 10.1933 17.9057 10.2764 17.9472L12.0188 18.8184C12.3429 18.9792 12.6258 19.2124 12.8455 19.5C13.0651 19.7876 13.2157 20.1218 13.2855 20.4769L13.5098 21.5981C13.5291 21.6949 13.5767 21.7838 13.6465 21.8536L13.6972 21.9043C13.8714 22.0782 13.9753 22.3103 13.9889 22.556C14.0025 22.8018 13.9249 23.044 13.7709 23.236L13.6097 23.4375L13.4486 23.639C13.247 23.8909 12.9946 24.0975 12.7079 24.2452C12.4211 24.393 12.1064 24.4786 11.7842 24.4964C11.4621 24.5142 11.1399 24.4639 10.8385 24.3488C10.5372 24.2336 10.2635 24.0561 10.0354 23.828L9.85375 23.6463C9.75998 23.5526 9.6328 23.4999 9.50019 23.4999C9.36758 23.4999 9.2404 23.5526 9.14662 23.6463C9.05285 23.7401 9.00017 23.8673 9.00017 23.9999C9.00017 24.1325 9.05285 24.2597 9.14662 24.3535L9.32831 24.5351C9.63424 24.8411 9.99745 25.0838 10.3972 25.2493C10.7969 25.4149 11.2254 25.5 11.6581 25.5C12.0907 25.4999 12.5191 25.4145 12.9188 25.2489C13.3185 25.0832 13.6816 24.8403 13.9874 24.5343L14.6096 25.3125C14.6744 25.3936 14.7629 25.4525 14.8627 25.481L14.9973 25.5195C15.7787 25.7455 16.4767 26.1957 17.0049 26.8143C17.5332 27.433 17.8685 28.1928 17.9694 29H6.36938L6.17562 28.3701C5.66354 26.7098 5.51863 24.9581 5.75094 23.2362C5.98325 21.5144 6.58723 19.8637 7.521 18.3985L7.922 17.7685C7.93122 17.754 7.93969 17.739 7.94738 17.7236L8.06306 17.4924C8.24968 17.1157 8.52221 16.7882 8.85866 16.5363C9.19511 16.2843 9.58606 16.1149 10 16.0418ZM15.2908 24.5631L14.6371 23.746C14.8947 23.3727 15.0177 22.9229 14.9857 22.4704C14.9538 22.0179 14.7688 21.5898 14.4612 21.2565L14.2661 20.2807C14.1668 19.7762 13.9529 19.3012 13.6407 18.8925C13.3286 18.4839 12.9267 18.1525 12.4661 17.924L11 17.191V15.6839L13.0452 15.498C13.1301 15.4902 13.2115 15.461 13.2818 15.413C13.3522 15.365 13.4091 15.2998 13.4472 15.2236L13.9472 14.2236C14.0053 14.1052 14.0142 13.9686 13.972 13.8436C13.9298 13.7186 13.8399 13.6153 13.7219 13.5563C13.6039 13.4973 13.4673 13.4873 13.342 13.5285C13.2167 13.5698 13.1127 13.6589 13.0528 13.7764L12.6773 14.5273L7.751 14.975L7.19337 14.1385L7.25881 14.0948C7.63106 13.8456 7.91425 13.4844 8.0673 13.0635C8.22035 12.6425 8.23531 12.1837 8.11 11.7537L9.72363 10.9469C9.83315 10.8921 9.91877 10.7991 9.96425 10.6854L10.5767 9.15414C10.671 8.91789 10.8157 8.70506 11.0008 8.53056C11.1858 8.35605 11.4068 8.22406 11.6481 8.14383L12.8356 7.74795C13.0182 7.68747 13.2066 7.64622 13.3978 7.62489C13.5979 7.85489 13.7776 8.10186 13.9349 8.36302L14.4442 9.21183C14.8079 9.81806 15.0001 10.5118 15 11.2188V12.2642C15 12.9272 15.2634 13.5631 15.7322 14.032C16.2011 14.5008 16.837 14.7642 17.5 14.7642C18.163 14.7642 18.7989 14.5008 19.2678 14.032C19.7366 13.5631 20 12.9272 20 12.2642C19.9999 12.0615 19.9872 11.859 19.9619 11.658C20.1621 11.9166 20.3537 12.1827 20.5365 12.4564C22.1644 14.9041 23.1933 17.7005 23.54 20.6195C23.8407 23.15 23.6165 25.7153 22.8813 28.1551L22.625 29.0104L18.9764 29.0182C18.8765 27.9927 18.4722 27.0205 17.8154 26.2266C17.1586 25.4327 16.2794 24.8534 15.2908 24.5631ZM6.54438 13.1652C6.50505 13.1062 6.47872 13.0395 6.46713 12.9696C6.45554 12.8996 6.45896 12.828 6.47716 12.7595C6.49536 12.691 6.52792 12.6271 6.57269 12.5722C6.61745 12.5172 6.6734 12.4723 6.73681 12.4406L7.18681 12.2156C7.21059 12.4177 7.17813 12.6224 7.09301 12.8072C7.00788 12.992 6.8734 13.1497 6.70438 13.2629L6.639 13.3066L6.54438 13.1652ZM17.683 9.34302C18.0965 9.70918 18.4276 10.1588 18.6546 10.6623C18.8816 11.1658 18.9993 11.7117 19 12.264C19.001 12.5427 18.9238 12.8162 18.7772 13.0533C18.6307 13.2904 18.4206 13.4818 18.1709 13.6056C17.9624 13.7092 17.7328 13.7631 17.5 13.7631C17.2673 13.7631 17.0376 13.7092 16.8292 13.6056C16.5794 13.4818 16.3693 13.2905 16.2228 13.0533C16.0762 12.8162 15.999 12.5427 16 12.264V11.2188C15.9999 10.3308 15.7586 9.45958 15.3018 8.69814L14.7926 7.84933C14.7781 7.8252 14.7622 7.80189 14.7474 7.77796C15.5842 8.00533 16.3736 8.38025 17.0786 8.88508C17.2849 9.03229 17.4863 9.18493 17.683 9.34302ZM27 29.0011L23.6696 29.0081L23.8393 28.4425C24.6138 25.8717 24.8499 23.1689 24.533 20.5027C24.1678 17.427 23.0838 14.4805 21.3687 11.9015C20.5315 10.6442 19.5057 9.52321 18.3275 8.57789C18.2067 8.47214 18.0806 8.37164 17.9486 8.27733C17.9333 8.26647 17.9175 8.25648 17.9011 8.24739C17.8213 8.18802 17.7411 8.12902 17.6601 8.07114C16.7008 7.38391 15.6058 6.90953 14.4484 6.67977C13.806 6.55151 13.1413 6.59289 12.5197 6.79983L11.3322 7.19564C10.9529 7.32171 10.6058 7.52909 10.3149 7.80329C10.0241 8.07749 9.7967 8.4119 9.64856 8.78314L9.10625 10.1378L6.28944 11.5462C6.0992 11.6413 5.93137 11.7758 5.79708 11.9407C5.66279 12.1057 5.5651 12.2973 5.51051 12.5028C5.45592 12.7084 5.44567 12.9232 5.48044 13.1331C5.51521 13.3429 5.59421 13.5429 5.71219 13.7199L6.08375 14.2771L7.08375 15.7771C7.13367 15.852 7.20287 15.912 7.28405 15.9508C7.36523 15.9897 7.45538 16.0058 7.545 15.9977L7.99019 15.9572C7.65148 16.2659 7.37282 16.6346 7.16825 17.0447L7.06406 17.2531L6.67694 17.8613C5.66533 19.4486 5.01102 21.2369 4.75934 23.1022C4.50767 24.9675 4.66466 26.8652 5.21944 28.6638L5.33731 29.047L1 29.0563V8.84145L14.0009 1.08177L27 8.78496V29.0011Z" fill="black"/>
<path d="M11.5 21.6875C11.8797 21.6875 12.1875 21.3797 12.1875 21C12.1875 20.6203 11.8797 20.3125 11.5 20.3125C11.1203 20.3125 10.8125 20.6203 10.8125 21C10.8125 21.3797 11.1203 21.6875 11.5 21.6875Z" fill="black"/>
<path d="M11.8125 11.5C12.1922 11.5 12.5 11.1922 12.5 10.8125C12.5 10.4328 12.1922 10.125 11.8125 10.125C11.4328 10.125 11.125 10.4328 11.125 10.8125C11.125 11.1922 11.4328 11.5 11.8125 11.5Z" fill="black"/>
</g>
<g id="cart-remove" opacity="0.5">
<path d="M2.25 4.5H3.75H15.75" stroke="#25282B" stroke-width="2" stroke-linecap="round" stroke-linejoin="round"/>
<path d="M6 4.5V3C6 2.60218 6.15804 2.22064 6.43934 1.93934C6.72064 1.65804 7.10218 1.5 7.5 1.5H10.5C10.8978 1.5 11.2794 1.65804 11.5607 1.93934C11.842 2.22064 12 2.60218 12 3V4.5M14.25 4.5V15C14.25 15.3978 14.092 15.7794 13.8107 16.0607C13.5294 16.342 13.1478 16.5 12.75 16.5H5.25C4.85218 16.5 4.47064 16.342 4.18934 16.0607C3.90804 15.7794 3.75 15.3978 3.75 15V4.5H14.25Z" stroke="#25282B" stroke-width="2" stroke-linecap="round" stroke-linejoin="round"/>
<path d="M7.5 8.25V12.75" stroke="#25282B" stroke-width="2" stroke-linecap="round" stroke-linejoin="round"/>
<path d="M10.5 8.25V12.75" stroke="#25282B" stroke-width="2" stroke-linecap="round" stroke-linejoin="round"/>
</g>
<g id="checkbox">
<path d="M11 1L4.57143 7L1 3.11111" stroke="#FF9702" stroke-width="2" stroke-linecap="round"/>
</g>
<g id="search" opacity="0.2">
<path d="M8.25 14.25C11.5637 14.25 14.25 11.5637 14.25 8.25C14.25 4.93629 11.5637 2.25 8.25 2.25C4.93629 2.25 2.25 4.93629 2.25 8.25C2.25 11.5637 4.93629 14.25 8.25 14.25Z" stroke="#25282B" stroke-width="2" stroke-linecap="round" stroke-linejoin="round"/>
<path d="M15.7498 15.75L12.4873 12.4875" stroke="#25282B" stroke-width="2" stroke-linecap="round" stroke-linejoin="round"/>
</g>
<g id="left-arrow">
<path fill-rule="evenodd" clip-rule="evenodd" d="M6.65691 15.0711L0.292946 8.70716C-0.097578 8.31664 -0.097578 7.68347 0.292946 7.29295L6.65691 0.928985C7.04743 0.53846 7.6806 0.53846 8.07112 0.928985C8.46164 1.31951 8.46164 1.95267 8.07112 2.3432L2.41427 8.00005L8.07112 13.6569C8.46164 14.0474 8.46164 14.6806 8.07112 15.0711C7.6806 15.4616 7.04743 15.4616 6.65691 15.0711Z" fill="black"/>
</g>
<g id="top-arrow">
<path opacity="0.5" fill-rule="evenodd" clip-rule="evenodd" d="M0.146447 3.73751L3.32843 0.55553C3.52369 0.360268 3.84027 0.360268 4.03553 0.55553L7.21751 3.73751C7.41278 3.93277 7.41278 4.24936 7.21751 4.44462C7.02225 4.63988 6.70567 4.63988 6.51041 4.44462L3.97487 1.90908L3.38909 1.90908L0.853553 4.44462C0.658291 4.63988 0.341709 4.63988 0.146447 4.44462C-0.0488156 4.24936 -0.0488156 3.93277 0.146447 3.73751Z" fill="black"/>
</g>
<g id="filter-mob">
<svg width="17" height="16" viewBox="0 0 17 16" fill="none" xmlns="http://www.w3.org/2000/svg">
    <path d="M16 1H1L7 8.095V13L10 14.5V8.095L16 1Z" stroke="#FBBA3C" stroke-width="1.5" stroke-linecap="round" stroke-linejoin="round"/>
</svg>  
</g>
</svg>
